# xmcd
#
# Track frame offsets:
#	150
#	15267
#	29960
#	45573
#	61581
#	80286
#	93052
#	110754
#	128475
#	146804
#	162112
#	177229
#	191922
#	207535
#	223543
#	242248
#	255014
#	272716
#	290437
#	308766
#
# Disc length: 4318 seconds
#
# Revision: 2
# Processed by: cddbd v1.5.2PL0 Copyright (c) Steve Scherf et al.
# Submitted via: audiograbber 1.83.01
#
DISCID=1610dc14
DTITLE=THMC0705 - Panorama Top Hits Monthly (THM)
DYEAR=1900
DGENRE=
TTITLE0=Montgomery Gentry - Lucky Man (Vocal)
TTITLE1=Aldean, Jason - Johnny Cash (Vocal)
TTITLE2=Deggs, Cole and The Lonesome - I Got More (Vocal)
TTITLE3=Covington, Bucky - A Different World (Vocal)
TTITLE4=Drake, Dusty - Say Yes (Vocal)
TTITLE5=Larsen, Blaine - Spoken Like A Man (Vocal)
TTITLE6=Britt, Catherine - What I Did Last Night (Vocal)
TTITLE7=Bryan, Luke - All My Friends Say (Vocal)
TTITLE8=Pickler, Kellie - I Wonder (Vocal)
TTITLE9=Keith, Toby - High Maintenance Woman (Vocal)
TTITLE10=Montgomery Gentry - Lucky Man (THM)
TTITLE11=Jason Aldean - Johnny Cash (THM)
TTITLE12=Cole Deggs and The Lonesome - I Got More (THM)
TTITLE13=Bucky Covington - A Different World (THM)
TTITLE14=Dusty Drake - Say Yes (THM)
TTITLE15=Blaine Larsen - Spoken Like A Man (THM)
TTITLE16=Catherine Britt - What I Did Last Night (THM)
TTITLE17=Luke Bryan - All My Friends Say (THM)
TTITLE18=Kellie Pickler - I Wonder (THM)
TTITLE19=Toby Keith - High Maintenance Woman (THM)
EXTD=
EXTT0=
EXTT1=
EXTT2=
EXTT3=
EXTT4=
EXTT5=
EXTT6=
EXTT7=
EXTT8=
EXTT9=
EXTT10=
EXTT11=
EXTT12=
EXTT13=
EXTT14=
EXTT15=
EXTT16=
EXTT17=
EXTT18=
EXTT19=
PLAYORDER=
